<svg xmlns="http://www.w3.org/2000/svg" viewBox="0 0 50 50" shape-rendering="crispEdges">
  <rect width="50" height="50" fill="#fff"/>
  <g fill="#111">
    <rect x="2" y="2" width="14" height="14"/><rect x="5" y="5" width="8" height="8" fill="#fff"/><rect x="7" y="7" width="4" height="4"/>
    <rect x="34" y="2" width="14" height="14"/><rect x="37" y="5" width="8" height="8" fill="#fff"/><rect x="39" y="7" width="4" height="4"/>
    <rect x="2" y="34" width="14" height="14"/><rect x="5" y="37" width="8" height="8" fill="#fff"/><rect x="7" y="39" width="4" height="4"/>
    <rect x="20" y="2" width="2" height="2"/><rect x="24" y="2" width="2" height="2"/><rect x="28" y="4" width="2" height="2"/>
    <rect x="20" y="8" width="2" height="2"/><rect x="26" y="8" width="2" height="2"/><rect x="20" y="12" width="2" height="2"/>
    <rect x="18" y="20" width="2" height="2"/><rect x="22" y="20" width="2" height="2"/><rect x="26" y="20" width="2" height="2"/><rect x="30" y="20" width="2" height="2"/><rect x="34" y="20" width="2" height="2"/><rect x="40" y="20" width="2" height="2"/><rect x="44" y="20" width="2" height="2"/>
    <rect x="20" y="24" width="2" height="2"/><rect x="28" y="24" width="2" height="2"/><rect x="36" y="24" width="2" height="2"/><rect x="42" y="24" width="2" height="2"/>
    <rect x="18" y="28" width="2" height="2"/><rect x="24" y="28" width="2" height="2"/><rect x="32" y="28" width="2" height="2"/><rect x="38" y="28" width="2" height="2"/><rect x="44" y="28" width="2" height="2"/>
    <rect x="20" y="32" width="2" height="2"/><rect x="26" y="32" width="2" height="2"/><rect x="34" y="32" width="2" height="2"/><rect x="40" y="32" width="2" height="2"/>
    <rect x="22" y="36" width="2" height="2"/><rect x="28" y="36" width="2" height="2"/><rect x="36" y="36" width="2" height="2"/><rect x="42" y="36" width="2" height="2"/>
    <rect x="20" y="40" width="2" height="2"/><rect x="24" y="40" width="2" height="2"/><rect x="30" y="40" width="2" height="2"/><rect x="38" y="40" width="2" height="2"/><rect x="44" y="40" width="2" height="2"/>
    <rect x="22" y="44" width="2" height="2"/><rect x="26" y="44" width="2" height="2"/><rect x="32" y="44" width="2" height="2"/><rect x="36" y="44" width="2" height="2"/><rect x="42" y="44" width="2" height="2"/>
  </g>
</svg>
